# xmcd
# Track frame offsets:
# 150
# 15256
# 26625
# 38851
# 50175
# 62922
# 74269
# 85841
# 99613
# 112143
# 120034
# 132128
# 143257
# 156995
# 165271
# 178323
# 190392
# 202276
# 213915
# 223275
#
# Disc length: 3163 seconds
# Revision: 0
# Processed by: cddbd v1.5.1PL0 Copyright (c) Steve Scherf et al.
# Submitted via: VisiTrax 2.9.10.220 - For more info visit www.synapsa.com
#
DISCID=250c5914
DTITLE=Sydney Devine - Greatest Hits Collections - CD1
DYEAR=2004
DGENRE=Country
TTITLE0=I Can't Stop Lovin' You
TTITLE1=Cryin' Time
TTITLE2=Lovesick Blues
TTITLE3=A Tear Fell
TTITLE4=Corrina Corrina
TTITLE5=Forty Shades of Green
TTITLE6=Eighteen Yellow Roses
TTITLE7=Two Little Orphans
TTITLE8=Gentle Mother
TTITLE9=The Tennessee Waltz
TTITLE10=Tiny Bubbles
TTITLE11=Spread It Around
TTITLE12=Road to Dundee
TTITLE13=My Truly Truly Fair
TTITLE14=Married By The Bible
TTITLE15=Love Is A Good Thing
TTITLE16=Kelly
TTITLE17=It Keeps Right on A Hurtin'
TTITLE18=From A Jack To A King
TTITLE19=Come On Home Rollin' Stone
EXTD=
EXTT0=
EXTT1=
EXTT2=
EXTT3=
EXTT4=
EXTT5=
EXTT6=
EXTT7=
EXTT8=
EXTT9=
EXTT10=
EXTT11=
EXTT12=
EXTT13=
EXTT14=
EXTT15=
EXTT16=
EXTT17=
EXTT18=
EXTT19=
PLAYORDER=
